<?xml version="1.0" encoding="UTF-8"?>
<svg id="Layer_1" data-name="Layer 1" xmlns="http://www.w3.org/2000/svg" viewBox="0 0 1147.78 532.24">
  <defs>
    <style>
      .cls-1 {
        fill: none;
        stroke: #7eb6d9;
        stroke-miterlimit: 10;
        stroke-width: 4.9px;
      }

      .cls-2 {
        fill: #6ca7d0;
      }
    </style>
  </defs>
  <g>
    <path class="cls-2" d="M118.55,168.79c-23.26,19.38-44.39,42.22-45.48,74.13-1.05,30.96,16.46,57.74,34.52,81.33,8.05-65.97,70.43-117.85,117.76-157.54-26.51,57.48-8.11,111.13,23.28,162.53,13.71-73.93,69.03-137.75,116.55-192.8,7.15-.57,10.73-.85,17.88-1.37-57.1,70.69-127.05,156.91-114.23,253.98-4.87-.33-7.3-.49-12.17-.83-38.08-40.89-81.35-90.31-86.23-148.75-31.59,42.13-53.75,87.13-32.18,138.85-5.61-.55-8.41-.82-14.02-1.39-35.08-27.25-80.39-61.7-92.62-107.25-11.29-42.06,17.97-71.71,50.03-93.88,12.29-2.42,24.59-4.76,36.91-7Z"/>
    <path class="cls-2" d="M471.01,400.1c-14.3-.33-28.53-3.52-41.68-9.17-13.4-5.76-25.98-13.5-37.12-22.92-10.99-9.3-20.59-20.33-27.81-32.81-6.96-12.02-11.11-25.62-11.46-39.54-.35-14.41,3.18-28.69,9.83-41.45,6.79-13.03,16.18-24.62,27.15-34.38,11.05-9.83,23.68-17.87,37.22-23.8,13.32-5.83,27.76-9.07,42.28-9.37,13.54-.28,27.19,1.96,39.71,7.28,11.84,5.03,22.67,12.32,31.77,21.41,9.26,9.24,16.71,20.24,21.96,32.21,5.48,12.48,8.54,26.37,8.22,39.71-.35,14.99-2.61,29.78-8.23,44.15-5.15,13.16-12.48,25.51-21.82,36.15-8.74,9.96-19.31,18.31-31.19,24.21-12.03,5.98-25.48,8.63-38.85,8.32ZM476.14,385.19c7.42,0,14.18-1.85,20.15-5.94,5.97-4.09,11.06-9.65,15.35-16.68,4.28-7.03,7.59-15.26,10.03-24.46,2.45-9.23,3.62-19.95,3.46-29.46-.25-13.94-1.31-28.15-3.82-41.98-2.14-11.82-6.03-23.53-11.54-34.05-4.39-8.39-12.62-17.57-20.53-22.69-9.4-6.09-20.8-7.65-31.4-7.88-6.25-.14-13.09,2.2-19.84,6.23-6.75,4.03-13.03,9.47-18.72,16.3-5.68,6.83-10.48,14.91-14.3,23.83-3.65,8.54-5.98,19.51-6.13,28.79-.22,13.88,1.5,28.12,5.7,41.52,3.82,12.2,9.55,24.3,17.24,34.06,6.95,8.81,15.24,17.2,24.82,23.39,7.92,5.11,19.97,9.01,29.52,9.02Z"/>
    <path class="cls-2" d="M696.68,398.79c-13.13.47-26.46-1.62-38.49-7.09-11.29-5.13-21.41-12.65-29.69-21.86-8.68-9.66-15.42-20.98-20.1-33.07-5.03-12.98-7.72-27.19-7.36-40.83.39-14.53,2.48-28.89,7.77-42.85,4.8-12.68,11.69-24.6,20.63-34.82,8.43-9.63,18.79-17.54,30.41-22.93,12.26-5.69,25.88-7.92,39.31-7.5,14.51.46,28.96,3.56,42.45,8.96,13.64,5.45,26.57,12.78,38.15,21.83,11.12,8.69,20.99,19.12,28.41,31.15,6.95,11.27,11.08,24.23,11.12,37.53.05,14.68-4.1,29.5-11.55,41.72-8.06,13.23-18.04,25.05-29.67,34.94-11.59,9.87-25.23,18.5-39.11,24.66-13.04,5.78-27.35,9.64-42.29,10.17ZM707.46,383.73c7.34-.4,14.92-2.48,22.24-6.73,7.32-4.25,14.15-9.98,20.3-16.82,6.08-6.76,11.74-15.73,15.44-23.91,3.78-8.36,6.63-19.17,7.14-28.41.75-13.43-.35-27.26-3.88-40.39-3.21-11.94-8.71-23.23-16.18-33.09-7-9.24-15.88-17.02-25.96-22.73-10.3-5.84-22.06-8.73-33.85-8.97-6.49-.13-12.46,1.68-18.07,5.49-5.61,3.81-10.42,9.1-14.53,15.85-4.12,6.75-7.33,14.78-9.81,23.84-2.49,9.1-3.66,19.78-3.45,29.18.31,13.99,1.46,28.27,4.18,42.13,2.31,11.77,6.09,23.49,11.31,34.14,3.98,8.12,11.23,17.28,18.43,22.7,6.81,5.13,18.25,8.18,26.69,7.73Z"/>
    <path class="cls-2" d="M875.54,385.36c-12.59.89-25.18,1.73-37.77,2.52,48.62-101.52,16.63-195.18-54.35-276.59,4.75-3.12,6.88-4.62,10.6-7.48,3.36.56,5.04.85,8.4,1.43,41.82,38.68,81.67,83.57,96.37,140.05,12.87,49.43,1.2,96.32-23.26,140.05Z"/>
    <path class="cls-2" d="M885.46,424.06c.73.41,1.42.97,2.03,1.68.61.71,1.4,1.36,2.35,1.95.95.59,2.24,1.01,3.85,1.24,1.62.24,3.82.13,6.63-.3,3.46-.53,7.94-2.06,13.46-4.55,5.51-2.49,11.39-5.43,17.53-8.8,6.14-3.38,12.28-6.97,18.33-10.77,6.05-3.81,11.38-7.32,16.02-10.57,12.3-8.61,24.41-17.39,36.35-26.48,15.83-64.98-56.93-128.28-98.13-166.11,14.49,1,28.98,2.05,43.46,3.14,38.08,31.99,87.81,72.22,99.09,123.76,27.18-29.28,58.97-70.42,35.82-111.65,8.2.85,12.3,1.28,20.51,2.16,47.79,75.58-90.23,155.52-136.84,185.45-13.22,8.11-26.58,15.93-40.29,23.19-11.67,6.18-23.52,12.09-35.44,17.7-9.03,4.25-18.28,8.37-27.61,11.98-7.76,3-13.85,4.99-18.4,5.92-3.42.69-5.87.72-7.46.06-1.59-.66-2.22-1.86-1.91-3.58,17.05-11.59,33.99-23.31,50.67-35.43Z"/>
  </g>
  <ellipse class="cls-1" cx="573.89" cy="266.12" rx="571.44" ry="263.67"/>
</svg>